<svg xmlns="http://www.w3.org/2000/svg" viewBox="0 0 4222.7 304.14">
  <g id="Layer_2" data-name="Layer 2">
    <g id="Good_luck" data-name="Good luck">
      <g>
        <rect x="1576.47" y="0.06" width="1069.76" height="1.07" fill="#f4f4f4"/>
        <rect x="1512.7" y="12.33" width="1197.3" height="1.07" fill="#f4f4f4"/>
        <rect x="1431.67" y="27.94" width="1359.37" height="1.07" fill="#f4f4f4"/>
        <rect x="1325.26" y="48.42" width="1572.17" height="1.07" fill="#f4f4f4"/>
        <rect x="1179.36" y="76.5" width="1863.98" height="1.07" fill="#f4f4f4"/>
        <rect x="966.95" y="117.39" width="2288.79" height="1.07" fill="#f4f4f4"/>
        <rect x="629.15" y="182.42" width="2964.4" height="1.06" fill="#f4f4f4"/>
        <rect x="0.33" y="302.98" width="4222.03" height="1.06" fill="#f4f4f4"/>
        <polygon points="0.32 304.14 0 303.11 1576.17 0 1576.49 1.04 0.32 304.14" fill="#f4f4f4"/>
        <polygon points="603.58 304.13 603.14 303.12 1728.98 0.01 1729.41 1.02 603.58 304.13" fill="#f4f4f4"/>
        <polygon points="1206.89 304.09 1206.22 303.16 1881.72 0.05 1882.39 0.98 1206.89 304.09" fill="#f4f4f4"/>
        <polygon points="1810.33 303.89 1809.17 303.35 2034.34 0.25 2035.5 0.79 1810.33 303.89" fill="#f4f4f4"/>
        <polygon points="2412.37 303.89 2187.2 0.79 2188.36 0.25 2413.53 303.35 2412.37 303.89" fill="#f4f4f4"/>
        <polygon points="3015.81 304.09 2340.31 0.98 2340.97 0.05 3016.48 303.16 3015.81 304.09" fill="#f4f4f4"/>
        <polygon points="3619.12 304.13 2493.29 1.02 2493.72 0.01 3619.56 303.12 3619.12 304.13" fill="#f4f4f4"/>
        <polygon points="4222.38 304.14 2646.21 1.04 2646.52 0 4222.7 303.11 4222.38 304.14" fill="#f4f4f4"/>
      </g>
    </g>
  </g>
</svg>
