<svg xmlns="http://www.w3.org/2000/svg" viewBox="0 0 193 193">
  <g id="Layer_2" data-name="Layer 2">
    <g id="Layer_1-2" data-name="Layer 1">
      <g id="plus">
        <g id="front">
          <path d="M183.45,80.5H127.5V24.55a9,9,0,0,0-9-9H88.55a9,9,0,0,0-9,9.05v56H24.55a9,9,0,0,0-9,9v29.9a9,9,0,0,0,9.05,9h55v54.95a9,9,0,0,0,9,9.05h29.9a9,9,0,0,0,9-9.05V128.5h55.95a9,9,0,0,0,9.05-9V89.55A9,9,0,0,0,183.45,80.5Z" fill="none" stroke="#231f20" stroke-miterlimit="10" stroke-width="1"/>
        </g>
        <path d="M168.45,65.5H112.5V9.55a9,9,0,0,0-9-9H73.55a9,9,0,0,0-9,9.05v56H9.55a9,9,0,0,0-9,9v29.9a9,9,0,0,0,9.05,9h55v54.95a9,9,0,0,0,9,9.05h29.9a9,9,0,0,0,9-9.05V113.5h55.95a9,9,0,0,0,9.05-9V74.55A9,9,0,0,0,168.45,65.5Z" fill="none" stroke="#231f20" stroke-miterlimit="10" stroke-width="1"/>
      </g>
    </g>
  </g>
</svg>
